<?xml version="1.0" standalone="no"?>
<!DOCTYPE svg PUBLIC "-//W3C//DTD SVG 20010904//EN"
 "http://www.w3.org/TR/2001/REC-SVG-20010904/DTD/svg10.dtd">
<svg version="1.0" xmlns="http://www.w3.org/2000/svg"
 width="200.000000pt" height="200.000000pt" viewBox="0 0 200.000000 200.000000"
 preserveAspectRatio="xMidYMid meet">

<g transform="translate(0.000000,200.000000) scale(0.100000,-0.100000)"
fill="#000000" stroke="none">
<path d="M1157 1013 c-4 -3 -7 -18 -7 -33 0 -23 -3 -27 -24 -23 -13 3 -33 0
-45 -7 -20 -10 -22 -18 -19 -78 l3 -67 45 -3 c62 -5 70 10 70 125 0 85 -5 104
-23 86z m-12 -138 c0 -45 -2 -50 -24 -53 -27 -4 -41 12 -41 50 0 44 10 59 39
56 24 -3 26 -6 26 -53z"/>
<path d="M1423 1010 c-17 -7 -23 -18 -23 -39 0 -16 -5 -33 -11 -37 -8 -4 -8
-9 0 -17 6 -6 11 -38 11 -70 0 -52 2 -58 15 -47 10 8 15 31 15 66 0 47 2 54
20 54 11 0 20 5 20 10 0 6 -9 10 -20 10 -15 0 -20 7 -20 25 0 18 5 25 20 25
11 0 20 7 20 15 0 17 -14 18 -47 5z"/>
<path d="M1843 1013 c-7 -3 -13 -15 -13 -28 0 -12 -7 -25 -15 -29 -8 -3 -15
-10 -15 -16 0 -5 7 -10 15 -10 12 0 15 -14 15 -65 0 -51 3 -65 15 -65 12 0 15
14 15 65 0 51 3 65 15 65 8 0 15 7 15 15 0 8 -6 15 -14 15 -9 0 -16 12 -18 28
-2 18 -8 27 -15 25z"/>
<path d="M753 950 c-20 -8 -23 -17 -23 -64 0 -78 5 -86 55 -86 46 0 69 17 63
47 -3 16 -5 16 -23 -4 -11 -13 -30 -23 -42 -23 -21 0 -23 4 -23 55 0 54 0 55
30 55 23 0 30 -4 30 -20 0 -13 5 -18 15 -14 16 7 19 22 7 41 -11 17 -62 25
-89 13z"/>
<path d="M912 944 c-17 -12 -22 -25 -22 -63 0 -66 15 -83 70 -79 l45 3 3 65
c2 52 0 67 -14 77 -24 17 -55 16 -82 -3z m68 -70 c0 -54 0 -55 -27 -52 -25 3
-28 8 -31 42 -4 52 3 66 33 66 24 0 25 -3 25 -56z"/>
<path d="M1247 948 c-15 -11 -18 -25 -15 -78 l3 -65 47 -3 c43 -3 49 0 60 22
15 34 0 48 -19 19 -15 -23 -63 -32 -63 -13 0 5 20 24 45 42 45 34 51 43 37 66
-13 19 -74 26 -95 10z m73 -26 c0 -5 -13 -18 -30 -30 l-30 -23 0 31 c0 27 3
30 30 30 17 0 30 -4 30 -8z"/>
<path d="M1531 946 c-10 -12 -7 -15 20 -18 50 -5 49 -28 0 -28 -35 0 -41 -3
-47 -25 -3 -14 -3 -36 0 -49 5 -20 13 -25 51 -28 25 -2 50 1 55 6 6 6 10 34
10 63 0 40 -5 58 -20 73 -23 23 -53 26 -69 6z m54 -96 c0 -20 -6 -26 -27 -28
-25 -3 -28 0 -28 28 0 28 3 31 28 28 21 -2 27 -8 27 -28z"/>
<path d="M1688 953 c-46 -12 -27 -80 25 -85 24 -2 32 -8 32 -23 0 -26 -52 -35
-61 -11 -9 24 -26 19 -22 -6 3 -20 10 -23 51 -26 42 -3 48 0 56 20 13 36 -2
62 -40 68 -22 3 -35 11 -37 23 -4 20 27 24 46 5 9 -9 13 -7 18 6 4 9 5 19 3
21 -8 7 -54 13 -71 8z"/>
<path d="M463 923 c-3 -10 -12 -33 -19 -52 -16 -38 -17 -51 -6 -51 4 0 18 27
30 60 11 33 17 60 11 60 -5 0 -12 -8 -16 -17z"/>
<path d="M371 906 c-47 -17 -50 -33 -7 -51 41 -18 46 -18 46 -6 0 5 -12 14
-27 19 l-28 9 28 13 c15 7 27 17 27 22 0 4 -1 8 -2 7 -2 0 -18 -6 -37 -13z"/>
<path d="M500 910 c0 -5 11 -12 25 -16 14 -3 25 -10 25 -14 0 -4 -11 -11 -25
-14 -14 -4 -25 -11 -25 -16 0 -13 1 -13 44 5 45 19 46 32 1 51 -41 17 -45 17
-45 4z"/>
</g>
</svg>
